<?xml version="1.0" encoding="UTF-8" standalone="no"?>
<svg
	version="1.0"
	xmlns="http://www.w3.org/2000/svg"
	width="500.000000pt"
	height="500.000000pt"
	viewBox="0 0 500.000000 500.000000"
	preserveAspectRatio="xMidYMid meet">
	<g
		transform="translate(0.000000,500.000000) scale(0.100000,-0.100000)"
		fill="#081CCA"
		stroke="none">
		<path d="M0 2500 l0 -2500 2500 0 2500 0 0 2500 0 2500 -2500 0 -2500 0 0
-2500z m3693 1248 c-11 -18 -213 -332 -448 -698 -715 -1110 -737 -1145 -742
-1157 -4 -10 112 -13 561 -13 l566 0 0 -300 0 -300 -1170 0 c-643 0 -1170 3
-1170 6 0 4 43 73 95 153 52 80 184 286 294 456 251 390 465 722 665 1032 86
133 156 244 156 247 0 3 -238 6 -530 6 l-530 0 0 300 0 300 1136 0 1136 0 -19
-32z"/>
	</g>
</svg>